<?xml version="1.0" encoding="UTF-8" standalone="no"?>
<!-- Created with Inkscape (http://www.inkscape.org/) -->

<svg
   xmlns:dc="http://purl.org/dc/elements/1.1/"
   xmlns:cc="http://creativecommons.org/ns#"
   xmlns:rdf="http://www.w3.org/1999/02/22-rdf-syntax-ns#"
   xmlns:svg="http://www.w3.org/2000/svg"
   xmlns="http://www.w3.org/2000/svg"
   xmlns:sodipodi="http://sodipodi.sourceforge.net/DTD/sodipodi-0.dtd"
   xmlns:inkscape="http://www.inkscape.org/namespaces/inkscape"
   width="127.88368mm"
   height="58.497475mm"
   viewBox="0 0 127.88369 58.497475"
   version="1.1"
   id="svg8"
   inkscape:version="0.92.4 5da689c313, 2019-01-14"
   sodipodi:docname="axe.svg">
  <defs
     id="defs2" />
  <sodipodi:namedview
     id="base"
     pagecolor="#ffffff"
     bordercolor="#666666"
     borderopacity="1.0"
     inkscape:pageopacity="0.0"
     inkscape:pageshadow="2"
     inkscape:zoom="0.98994949"
     inkscape:cx="188.21118"
     inkscape:cy="63.567229"
     inkscape:document-units="mm"
     inkscape:current-layer="g4622"
     showgrid="false"
     inkscape:window-width="1920"
     inkscape:window-height="1017"
     inkscape:window-x="0"
     inkscape:window-y="0"
     inkscape:window-maximized="1"
     fit-margin-top="0"
     units="mm"
     fit-margin-left="0"
     fit-margin-right="0"
     fit-margin-bottom="0" />
  <metadata
     id="metadata5">
    <rdf:RDF>
      <cc:Work
         rdf:about="">
        <dc:format>image/svg+xml</dc:format>
        <dc:type
           rdf:resource="http://purl.org/dc/dcmitype/StillImage" />
        <dc:title></dc:title>
      </cc:Work>
    </rdf:RDF>
  </metadata>
  <g
     inkscape:label="Layer 1"
     inkscape:groupmode="layer"
     id="layer1"
     transform="translate(-2.1356446,-1.8921448)">
    <path
       id="path21"
       style="fill:none;stroke:#000000;stroke-width:2.36899996;stroke-miterlimit:4;stroke-dasharray:none;stroke-opacity:1"
       ry="44.163944"
       rx="43.829853"
       cy="84.453911"
       cx="89.66893"
       d=""
       inkscape:connector-curvature="0" />
    <g
       id="g4622"
       transform="rotate(139.93875,90.979955,112.09313)">
      <path
         id="path4582-6"
         style="fill:#000000;fill-opacity:1;stroke:#000000;stroke-width:4.16499996;stroke-linecap:butt;stroke-linejoin:miter;stroke-miterlimit:4;stroke-dasharray:none;stroke-opacity:1"
         d="m 18.632196,167.78921 5.006715,-5.41087 c 0,0 14.462938,-7.13285 19.559577,-4.52587 0.915601,0.68379 -0.01348,-16.07239 -15.123701,-28.37446 -18.1236015,21.57289 -32.5439355,39.43115 -33.6666475,41.82557 9.431933,9.02055 10.004433,9.22746 10.004433,9.22746 l 5.24145,-2.83006 c 3.4936505,-5.25108 8.9781735,-9.91177 8.9781735,-9.91177 z m 75.435745,64.15236 c -0.40144,-0.87765 -0.92343,-1.08465 -0.92343,-1.08465 l -8.92538,-3.6014 -4.08021,-1.89172 c -0.75515,-0.16902 -3.84375,-2.61478 -3.84375,-2.61478 -0.5777,-0.48986 -4.159374,-3.37714 -4.159374,-3.37714 -0.627413,-0.47226 -4.702303,-4.65294 -4.702303,-4.65294 L 63.373066,210.42095 45.27672,190.65886 c 0,0 -15.688957,-16.26715 -17.559401,-17.93474 -1.870715,-1.66729 -9.085121,-4.93491 -9.085121,-4.93491 0,0 -0.860536,-1.28635 5.006714,-5.41087 0,0 14.462931,-7.13285 19.559576,-4.52587 0.915601,0.68379 -0.01349,-16.07238 -15.123708,-28.37446 -18.1235935,21.57289 -32.5439185,39.43115 -33.6666435,41.82558 10.82307,10.08025 10.140666,9.35845 10.140666,9.35845 l 5.403426,-2.21079 c 4.0944815,4.33074 4.4703895,4.7578 4.4703895,4.7578 0,0 5.904543,8.03783 17.710277,13.68808 0.06812,0.0655 1.609842,0.30268 14.059628,13.25824 12.449798,12.95556 17.598681,18.23472 20.509161,20.11589 2.910474,1.88118 19.157577,15.93202 19.157577,15.93202 0,0 1.39104,1.0755 1.59537,1.272 1.70287,-0.0667 2.49798,-0.41641 2.49798,-0.41641 l 3.77532,-3.44872 c 0,0 0.85151,-0.88541 0.76247,-2.01982 -0.089,-1.13438 0.11702,-6.8357 -0.4225,-9.64873 z"
         inkscape:connector-curvature="0" />
    </g>
  </g>
</svg>
