<?xml version="1.0" encoding="UTF-8" standalone="no"?>
<!-- Created with Inkscape (http://www.inkscape.org/) -->

<svg
   xmlns:dc="http://purl.org/dc/elements/1.1/"
   xmlns:cc="http://creativecommons.org/ns#"
   xmlns:rdf="http://www.w3.org/1999/02/22-rdf-syntax-ns#"
   xmlns:svg="http://www.w3.org/2000/svg"
   xmlns="http://www.w3.org/2000/svg"
   xmlns:sodipodi="http://sodipodi.sourceforge.net/DTD/sodipodi-0.dtd"
   xmlns:inkscape="http://www.inkscape.org/namespaces/inkscape"
   width="210mm"
   height="297mm"
   viewBox="0 0 210 297"
   version="1.1"
   id="svg8"
   inkscape:version="0.92.4 5da689c313, 2019-01-14"
   sodipodi:docname="axe.svg">
  <defs
     id="defs2" />
  <sodipodi:namedview
     id="base"
     pagecolor="#ffffff"
     bordercolor="#666666"
     borderopacity="1.0"
     inkscape:pageopacity="0.0"
     inkscape:pageshadow="2"
     inkscape:zoom="0.98994949"
     inkscape:cx="420.48989"
     inkscape:cy="808.93229"
     inkscape:document-units="mm"
     inkscape:current-layer="g4622"
     showgrid="false"
     inkscape:window-width="1920"
     inkscape:window-height="1017"
     inkscape:window-x="0"
     inkscape:window-y="0"
     inkscape:window-maximized="1" />
  <metadata
     id="metadata5">
    <rdf:RDF>
      <cc:Work
         rdf:about="">
        <dc:format>image/svg+xml</dc:format>
        <dc:type
           rdf:resource="http://purl.org/dc/dcmitype/StillImage" />
        <dc:title></dc:title>
      </cc:Work>
    </rdf:RDF>
  </metadata>
  <g
     inkscape:label="Layer 1"
     inkscape:groupmode="layer"
     id="layer1">
    <path
       id="path21"
       style="fill:none;stroke:#000000;stroke-width:2.369;stroke-opacity:1;stroke-miterlimit:4;stroke-dasharray:none"
       ry="44.163944"
       rx="43.829853"
       cy="84.453911"
       cx="89.66893" />
    <g
       id="g4622"
       transform="rotate(139.93875,90.979955,112.09313)">
      <g
         id="g4626"
         transform="matrix(0.99909797,0.04246479,0.04246479,-0.99909797,-16.173538,278.09662)">
        <path
           style="fill:none;stroke:#000000;stroke-width:4.16499996;stroke-linecap:butt;stroke-linejoin:miter;stroke-miterlimit:4;stroke-dasharray:none;stroke-opacity:1"
           d="m 146.41853,110.65774 c -0.89769,0.35435 -1.41741,0.14174 -1.41741,0.14174 l -8.92969,-3.59077 -4.25223,-1.46466 c -0.66146,-0.4016 -4.58297,-0.77958 -4.58297,-0.77958 -0.75595,-0.0473 -5.33891,-0.44885 -5.33891,-0.44885 -0.77958,-0.0945 -6.61458,0.0944 -6.61458,0.0944 l -5.90588,0.28348 -26.741816,1.70089 c 0,0 -22.584076,0.85045 -25.08817,0.75595 -2.504093,-0.0945 -9.969121,-2.74032 -9.969121,-2.74032 0,0 -1.511906,0.33073 -0.141743,7.37053 0,0 5.480656,15.1663 10.961312,16.81994 1.133928,0.14174 -11.150298,11.57552 -30.568826,9.96913 1.889882,-28.11198 3.874257,-50.979542 4.724702,-53.483636 14.788319,0.236236 13.796132,0.283483 13.796132,0.283483 l 2.36235,5.338913 c 5.953125,-0.283482 6.52009,-0.330729 6.52009,-0.330729 0,0 9.827382,-1.700893 22.253347,2.409597 0.0945,0 1.370164,0.897695 19.324034,0.18899 17.953869,-0.708705 25.324399,-0.944941 28.726189,-0.283483 3.40179,0.661458 24.85194,1.795388 24.85194,1.795388 0,0 1.74813,0.188987 2.03162,0.188987 1.18117,1.228423 1.5119,2.031622 1.5119,2.031622 l 0.33073,5.102678 c 0,0 0,1.22842 -0.85045,1.98438 -0.85044,0.75595 -4.65382,5.00823 -6.99255,6.66188 z"
           id="path4582"
           inkscape:connector-curvature="0"
           sodipodi:nodetypes="cccccccccscccccccccssccccscc" />
        <path
           style="fill:#000000;fill-opacity:1;stroke:#000000;stroke-width:4.16499996;stroke-linecap:butt;stroke-linejoin:miter;stroke-miterlimit:4;stroke-dasharray:none;stroke-opacity:1"
           d="m 47.766742,104.61003 -0.141743,7.37053 c 0,0 5.480656,15.16629 10.961312,16.81993 1.133927,0.14174 -11.150298,11.57552 -30.568827,9.96913 1.889882,-28.11197 3.874257,-50.979543 4.724702,-53.483633 13.051068,0.0358 13.607144,0.28348 13.607144,0.28348 l 1.816348,5.673 c -1.12159,6.20657 -0.398936,13.367563 -0.398936,13.367563 z"
           id="path4582-6"
           inkscape:connector-curvature="0"
           sodipodi:nodetypes="cccccccc" />
      </g>
    </g>
  </g>
</svg>
